<?xml version="1.0" encoding="UTF-8"?>
<svg version="1.1" xmlns="http://www.w3.org/2000/svg" width="501" height="501">
<path d="M0 0 C165.33 0 330.66 0 501 0 C501 165.33 501 330.66 501 501 C335.67 501 170.34 501 0 501 C0 335.67 0 170.34 0 0 Z " fill="#F5F1F0" transform="translate(0,0)"/>
<path d="M0 0 C1.03125 0.721875 2.0625 1.44375 3.125 2.1875 C10.96579727 8.93626423 17.26382438 21.76000129 18.18154335 32.03201103 C18.24886231 34.30284468 18.25578662 36.56587076 18.23950195 38.83764648 C18.24151611 39.69388611 18.24353027 40.55012573 18.24560547 41.43231201 C18.24913519 43.28087988 18.24840347 45.12945986 18.24382973 46.97802544 C18.23820902 49.90875428 18.24743988 52.83909142 18.2610321 55.76979065 C18.29804804 64.09858005 18.31670085 72.42723403 18.30541992 80.75610352 C18.29955557 85.86074243 18.31789025 90.9648272 18.35130882 96.0693531 C18.35923971 98.00811273 18.35801734 99.94693311 18.34728432 101.88567924 C18.33289044 104.60204845 18.34929518 107.31668443 18.37231445 110.03295898 C18.36054672 110.82541519 18.34877899 111.6178714 18.33665466 112.43434143 C18.43124686 118.15497941 19.9786093 122.78583004 24 127 C26.85837618 128.00017132 29.48313758 128.13533172 32.5 128.125 C33.2528125 128.12757813 34.005625 128.13015625 34.78125 128.1328125 C37.03156355 127.99811063 38.88989691 127.80517092 41 127 C41.33 126.01 41.66 125.02 42 124 C42.66 124 43.32 124 44 124 C44.80451615 120.45648551 45.13327683 117.17012943 45.15821838 113.53935242 C45.1680072 112.45546738 45.17779602 111.37158234 45.18788147 110.25485229 C45.19363693 109.07593414 45.1993924 107.89701599 45.20532227 106.68237305 C45.21522186 105.43318588 45.22512146 104.18399872 45.23532104 102.8969574 C45.26146191 99.48001224 45.28334321 96.06308986 45.30332303 92.64610648 C45.3252315 89.07197322 45.35259635 85.49788181 45.37937927 81.92378235 C45.42924055 75.15952204 45.47420366 68.39523842 45.51740164 61.63093263 C45.56683021 53.92839633 45.62172745 46.22590203 45.67708123 38.52340639 C45.79080047 22.68230829 45.89693943 6.84117157 46 -9 C59.2 -9 72.4 -9 86 -9 C86.02260511 7.40330798 86.04101303 23.80660259 86.05181217 40.20992184 C86.05696048 47.82688392 86.06397519 55.44383561 86.07543945 63.06079102 C86.08543113 69.7025335 86.09186408 76.34426845 86.09408849 82.98601824 C86.095388 86.50020408 86.09842552 90.01436838 86.10573006 93.52854729 C86.11383311 97.4590583 86.11398826 101.38954858 86.11352539 105.32006836 C86.11712067 106.47525467 86.12071594 107.63044098 86.12442017 108.82063293 C86.11236429 118.30079271 85.94205345 126.43281189 81.5 134.9375 C80.96596558 135.9728186 80.96596558 135.9728186 80.42114258 137.02905273 C73.35746686 150.1943651 62.69925524 158.61158089 48.546875 163.2890625 C44.99672282 164.2800559 41.68012231 164.84582366 38 165 C37.09636719 165.03996094 36.19273437 165.07992187 35.26171875 165.12109375 C25.40800561 165.3383611 15.89263185 164.44631593 7 160 C6.04609375 159.5565625 5.0921875 159.113125 4.109375 158.65625 C-6.46196045 153.0252874 -15.85071414 142.59065075 -19.4375 131.1875 C-19.99509927 129.13463452 -20.51928872 127.07221868 -21 125 C-21.17600739 124.28387543 -21.35201477 123.56775085 -21.53335571 122.82992554 C-22.14345346 119.13003841 -22.15262655 115.47929131 -22.15771484 111.74072266 C-22.16279556 110.92218307 -22.16787628 110.10364349 -22.17311096 109.26029968 C-22.18378521 107.48809492 -22.19241686 105.71587692 -22.19923019 103.94365311 C-22.21105887 101.13524684 -22.23052133 98.3269916 -22.25234985 95.51864624 C-22.31383651 87.53559411 -22.3679983 79.55255916 -22.40136719 71.56933594 C-22.42234663 66.68105075 -22.45767294 61.79304428 -22.50212479 56.90491867 C-22.51625513 55.04629171 -22.52500051 53.18761548 -22.52817917 51.32893753 C-22.5331044 48.72501824 -22.55630256 46.12183528 -22.58349609 43.51806641 C-22.58048996 42.75627579 -22.57748383 41.99448517 -22.5743866 41.20960999 C-22.6532394 36.10866022 -23.60944976 32.53167758 -26 28 C-29.23736893 25.1305139 -31.20280958 24.0996488 -35.5 23.5625 C-40.53934921 24.19241865 -44.78902477 25.94403128 -48 30 C-49.00966001 33.02898002 -49.13665829 35.0887679 -49.15821838 38.25810242 C-49.1680072 39.34765228 -49.17779602 40.43720215 -49.18788147 41.55976868 C-49.19363693 42.75522812 -49.1993924 43.95068756 -49.20532227 45.18237305 C-49.21522186 46.44102173 -49.22512146 47.69967041 -49.23532104 48.99645996 C-49.26236259 52.44863123 -49.2833762 55.90081616 -49.30332303 59.35303473 C-49.32518721 62.96054561 -49.35257379 66.5680144 -49.37937927 70.17549133 C-49.42930031 77.0071085 -49.47424133 83.83874903 -49.51740164 90.67041188 C-49.56677904 98.44787028 -49.6216953 106.22528646 -49.67708123 114.00270402 C-49.79089225 130.00176518 -49.89700199 146.00086503 -50 162 C-63.2 162 -76.4 162 -90 162 C-90.06787363 145.12696342 -90.12307262 128.25404442 -90.15543652 111.38090897 C-90.17086695 103.54539329 -90.19188277 95.70996883 -90.22631836 87.87451172 C-90.25633844 81.04046684 -90.27560275 74.20648806 -90.28226548 67.37237906 C-90.28615653 63.75797825 -90.29521991 60.14376646 -90.31719017 56.52942657 C-90.34158997 52.48209965 -90.34196197 48.43509567 -90.34057617 44.38769531 C-90.351362 43.20589188 -90.36214783 42.02408844 -90.3732605 40.80647278 C-90.31921855 26.14606136 -86.56397202 14.3654525 -76.640625 3.390625 C-55.03361915 -17.11538692 -23.46426004 -16.91920078 0 0 Z " fill="#403637" transform="translate(252,173)"/>
<path d="M0 0 C5.0034473 3.77632446 8.71375111 7.19118781 10.17578125 13.45703125 C10.96221769 20.93328412 10.86829854 26.44098345 6.17578125 32.45703125 C1.17402592 37.79306231 -3.37871115 39.76550785 -10.63671875 40.89453125 C-16.70998075 40.06094627 -22.67260189 37.16482494 -26.82421875 32.58203125 C-30.59731532 26.68656786 -31.80521528 20.36079431 -30.82421875 13.45703125 C-28.96198066 8.26181021 -25.19953946 3.7649428 -20.82421875 0.45703125 C-14.31783351 -2.34964474 -6.38479476 -3.48823504 0 0 Z " fill="#423839" transform="translate(191.82421875,346.54296875)"/>
<path d="M0 0 C0.33 0.66 0.66 1.32 1 2 C1.77988281 1.65453125 2.55976563 1.3090625 3.36328125 0.953125 C8.18691142 -0.31107023 12.27931117 0.1813467 17.1875 0.75 C18.54004883 0.88148438 18.54004883 0.88148438 19.91992188 1.015625 C26.59740323 1.73160215 26.59740323 1.73160215 30 4 C29.67 6.31 29.34 8.62 29 11 C29.66 11 30.32 11 31 11 C31 8.03 31 5.06 31 2 C34.3 2 37.6 2 41 2 C41 2.66 41 3.32 41 4 C38.69 4 36.38 4 34 4 C34 5.32 34 6.64 34 8 C35.98 8 37.96 8 40 8 C40 8.66 40 9.32 40 10 C38.02 10 36.04 10 34 10 C34 11.65 34 13.3 34 15 C36.31 15 38.62 15 41 15 C41 16.65 41 18.3 41 20 C41.66 20.33 42.32 20.66 43 21 C43 21.66 43 22.32 43 23 C45.31 23.66 47.62 24.32 50 25 C50 25.33 50 25.66 50 26 C48.35 26 46.7 26 45 26 C45 26.99 45 27.98 45 29 C46.32 29.33 47.64 29.66 49 30 C47.68 30 46.36 30 45 30 C45 30.99 45 31.98 45 33 C46.65 33 48.3 33 50 33 C50 33.33 50 33.66 50 34 C41 34 41 34 39.08203125 33.96484375 C35.4097706 33.92059965 32.01684907 33.99738549 28.375 34.5625 C24.56714963 35.05611023 21.71405447 34.99993774 18 34 C16.25 31.5 16.25 31.5 15 29 C14.01 28.67 13.02 28.34 12 28 C12 28.66 12 29.32 12 30 C10.68 30 9.36 30 8 30 C8.95865509 32.33075929 8.95865509 32.33075929 12 34 C9.36 34 6.72 34 4 34 C4 32.68 4 31.36 4 30 C2.68 30 1.36 30 0 30 C0 31.32 0 32.64 0 34 C-0.66 34 -1.32 34 -2 34 C-2 31.36 -2 28.72 -2 26 C-2.99 26 -3.98 26 -5 26 C-5 28.64 -5 31.28 -5 34 C-5.66 34 -6.32 34 -7 34 C-7 31.36 -7 28.72 -7 26 C-7.66 25.67 -8.32 25.34 -9 25 C-6.03 25 -3.06 25 0 25 C0 25.99 0 26.98 0 28 C0.99 28 1.98 28 3 28 C3 26.68 3 25.36 3 24 C3.75925781 24.02320313 4.51851563 24.04640625 5.30078125 24.0703125 C6.79158203 24.09738281 6.79158203 24.09738281 8.3125 24.125 C9.79169922 24.15980469 9.79169922 24.15980469 11.30078125 24.1953125 C14.22406527 24.20682639 14.22406527 24.20682639 17 22 C17.99 22 18.98 22 20 22 C20 21.34 20 20.68 20 20 C19.40832031 20.02320313 18.81664062 20.04640625 18.20703125 20.0703125 C13.57492284 20.1761029 10.28095618 19.94588917 6 18 C5.34 18.33 4.68 18.66 4 19 C4 18.34 4 17.68 4 17 C3.34 17 2.68 17 2 17 C2 16.34 2 15.68 2 15 C1.34 15 0.68 15 0 15 C0 15.66 0 16.32 0 17 C-8.15384615 17.61538462 -8.15384615 17.61538462 -11.0625 15.5 C-12.47103902 11.74389595 -12.38272538 9.01861644 -12 5 C-10.76953125 3.265625 -10.76953125 3.265625 -9 2 C-6.73828125 1.70703125 -6.73828125 1.70703125 -4.3125 1.8125 C-3.10013672 1.85310547 -3.10013672 1.85310547 -1.86328125 1.89453125 C-1.24839844 1.92933594 -0.63351562 1.96414063 0 2 C0 1.34 0 0.68 0 0 Z " fill="#EAE7E4" transform="translate(285,344)"/>
<path d="M0 0 C0.58265625 0.0721875 1.1653125 0.144375 1.765625 0.21875 C11.26950112 1.2946605 20.56250244 1.40351906 30.0390625 0.0234375 C30.68617188 0.01570313 31.33328125 0.00796875 32 0 C34 2 34 2 34 3 C34.66 3.33 35.32 3.66 36 4 C35.835 4.61875 35.67 5.2375 35.5 5.875 C34.92365356 7.96063386 34.92365356 7.96063386 35 10 C34.11957031 9.91621094 33.23914063 9.83242188 32.33203125 9.74609375 C30.58986328 9.59333984 30.58986328 9.59333984 28.8125 9.4375 C27.08966797 9.28087891 27.08966797 9.28087891 25.33203125 9.12109375 C22.27666709 9.01005472 19.95151206 9.30839156 17 10 C14.66434058 10.24082904 12.32896647 10.43619929 9.98828125 10.62109375 C7.77546727 10.84970915 7.77546727 10.84970915 6 13 C5.49033587 18.88336903 5.49033587 18.88336903 8 24 C10.19454681 24.57993699 10.19454681 24.57993699 12.625 24.6875 C13.44226563 24.75324219 14.25953125 24.81898438 15.1015625 24.88671875 C15.72804688 24.92410156 16.35453125 24.96148437 17 25 C17 24.34 17 23.68 17 23 C17.66 23 18.32 23 19 23 C19 23.66 19 24.32 19 25 C19.66 25 20.32 25 21 25 C21.33 25.33 21.66 25.66 22 26 C22.99 25.67 23.98 25.34 25 25 C25.763125 25.309375 26.52625 25.61875 27.3125 25.9375 C30.40838514 27.16145459 32.6975768 27.22016155 36 27 C36.66 26.67 37.32 26.34 38 26 C38.99 26.66 39.98 27.32 41 28 C40.01 28 39.02 28 38 28 C37.67 29.32 37.34 30.64 37 32 C37 31.34 37 30.68 37 30 C33.45481116 31.39759905 33.45481116 31.39759905 30 33 C28.28766312 32.9129796 26.57824594 32.75902838 24.875 32.5625 C23.96492188 32.46066406 23.05484375 32.35882813 22.1171875 32.25390625 C21.41851562 32.17011719 20.71984375 32.08632813 20 32 C20 33.32 20 34.64 20 36 C19.01 36 18.02 36 17 36 C17 35.01 17 34.02 17 33 C13.27501819 33.50143986 9.62562066 33.99982878 6 35 C4.66666667 35.33333333 3.33333333 35.66666667 2 36 C2 35.34 2 34.68 2 34 C0.02 34.495 0.02 34.495 -2 35 C-2 36.32 -2 37.64 -2 39 C-0.68 39.33 0.64 39.66 2 40 C2 39.34 2 38.68 2 38 C1.34 37.67 0.68 37.34 0 37 C1.32 37 2.64 37 4 37 C4 38.65 4 40.3 4 42 C0 42 -4 42 -8 42 C-8.66 40.68 -9.32 39.36 -10 38 C-10.33 39.32 -10.66 40.64 -11 42 C-12.65 42 -14.3 42 -16 42 C-16 38.04 -16 34.08 -16 30 C-14.35 29.34 -12.7 28.68 -11 28 C-10.67 28.99 -10.34 29.98 -10 31 C-10 29.35 -10 27.7 -10 26 C-11.32 25.67 -12.64 25.34 -14 25 C-10.92482916 14.44191344 -10.92482916 14.44191344 -9 10 C-7.68 10 -6.36 10 -5 10 C-4.67 8.68 -4.34 7.36 -4 6 C-3.34 6 -2.68 6 -2 6 C-2 5.34 -2 4.68 -2 4 C-1.01 4 -0.02 4 1 4 C0.67 2.68 0.34 1.36 0 0 Z " fill="#F1EBEB" transform="translate(268,336)"/>
<path d="M0 0 C0.66 0 1.32 0 2 0 C2 0.66 2 1.32 2 2 C3.32 2 4.64 2 6 2 C7.32 5.3 8.64 8.6 10 12 C11.32 8.7 12.64 5.4 14 2 C14.99 2 15.98 2 17 2 C15.41078475 7.36095277 13.81027062 12.70843973 12 18 C12.66 18 13.32 18 14 18 C14.495 19.485 14.495 19.485 15 21 C13.68 21.33 12.36 21.66 11 22 C11 22.99 11 23.98 11 25 C11.66 25 12.32 25 13 25 C13.625 28.375 13.625 28.375 14 32 C12 34 12 34 8.92724609 34.22705078 C7.63898926 34.21657715 6.35073242 34.20610352 5.0234375 34.1953125 C4.33819 34.1924826 3.6529425 34.18965271 2.94692993 34.18673706 C0.75610973 34.17553281 -1.43430316 34.15042859 -3.625 34.125 C-5.1093691 34.11497048 -6.5937446 34.10584458 -8.078125 34.09765625 C-11.71888261 34.07559294 -15.35940156 34.04106176 -19 34 C-19 31.03 -19 28.06 -19 25 C-17.02 25 -15.04 25 -13 25 C-12.67 26.65 -12.34 28.3 -12 30 C-12 28.35 -12 26.7 -12 25 C-11.34 25 -10.68 25 -10 25 C-9.67 27.31 -9.34 29.62 -9 32 C-8.34 32 -7.68 32 -7 32 C-6.97873047 31.07767578 -6.97873047 31.07767578 -6.95703125 30.13671875 C-6.56653084 23.51931994 -6.56653084 23.51931994 -3.75 20.9375 C-0.95960608 19.98622935 1.07675708 19.74943632 4 20 C3.34 18.68 2.68 17.36 2 16 C1.2265625 16.2475 1.2265625 16.2475 0.4375 16.5 C-3.956259 17.4012839 -7.5527477 17.92772583 -11.4375 15.4375 C-13.58879747 12.08147594 -13.48947291 9.91578329 -13 6 C-11.796875 3.796875 -11.796875 3.796875 -10 2 C-7.51953125 1.609375 -7.51953125 1.609375 -4.8125 1.75 C-3.91144531 1.78609375 -3.01039063 1.8221875 -2.08203125 1.859375 C-1.39496094 1.90578125 -0.70789063 1.9521875 0 2 C0 1.34 0 0.68 0 0 Z " fill="#EBE7E6" transform="translate(237,344)"/>
<path d="M0 0 C0.33 1.32 0.66 2.64 1 4 C1.99 4 2.98 4 4 4 C4 44.59 4 85.18 4 127 C4.66 127.33 5.32 127.66 6 128 C5.505 128.99 5.505 128.99 5 130 C3.35 129.67 1.7 129.34 0 129 C0.33 129.99 0.66 130.98 1 132 C0.01 131.67 -0.98 131.34 -2 131 C-1.67 130.01 -1.34 129.02 -1 128 C-0.89824117 126.26213139 -0.85371661 124.52066578 -0.84178162 122.77986145 C-0.8319928 121.69872574 -0.82220398 120.61759003 -0.81211853 119.50369263 C-0.80636307 118.31758392 -0.8006076 117.13147522 -0.79467773 115.90942383 C-0.78477814 114.66052872 -0.77487854 113.41163361 -0.76467896 112.12489319 C-0.7384828 108.69956533 -0.71662422 105.27426089 -0.69667697 101.84889436 C-0.67481228 98.26941051 -0.64742595 94.68996906 -0.62062073 91.11051941 C-0.57070038 84.33202637 -0.52575911 77.55350979 -0.48259836 70.77497071 C-0.43322037 63.05797045 -0.37830432 55.34101272 -0.32291877 47.6240536 C-0.20910882 31.74940837 -0.10226763 15.87472403 0 0 Z " fill="#4B4243" transform="translate(298,164)"/>
<path d="M0 0 C0.33 0.66 0.66 1.32 1 2 C1.99 2 2.98 2 4 2 C3.67 42.26 3.34 82.52 3 124 C2.01 124 1.02 124 0 124 C0 83.08 0 42.16 0 0 Z " fill="#EEE5E6" transform="translate(338,164)"/>
<path d="M0 0 C1.32 0 2.64 0 4 0 C4.67467562 1.74692795 5.33944156 3.49768525 6 5.25 C6.556875 6.71179688 6.556875 6.71179688 7.125 8.203125 C8 11 8 11 8 15 C7.34 15 6.68 15 6 15 C6.9977758 17.99332739 7.7522025 18.94766315 10 21 C9.01 21 8.02 21 7 21 C7.804375 21.268125 8.60875 21.53625 9.4375 21.8125 C10.283125 22.204375 11.12875 22.59625 12 23 C12.33 23.99 12.66 24.98 13 26 C12.34 26 11.68 26 11 26 C11 25.34 11 24.68 11 24 C9.68 24.33 8.36 24.66 7 25 C7 26.32 7 27.64 7 29 C8.32 29.33 9.64 29.66 11 30 C11 29.34 11 28.68 11 28 C10.34 27.67 9.68 27.34 9 27 C10.32 27 11.64 27 13 27 C13 28.65 13 30.3 13 32 C9 32 5 32 1 32 C0.34 30.68 -0.32 29.36 -1 28 C-1.33 29.32 -1.66 30.64 -2 32 C-3.65 32 -5.3 32 -7 32 C-7 28.04 -7 24.08 -7 20 C-5.35 19.34 -3.7 18.68 -2 18 C-1.67 18.99 -1.34 19.98 -1 21 C-1 19.35 -1 17.7 -1 16 C-2.32 15.67 -3.64 15.34 -5 15 C-1.92482916 4.44191344 -1.92482916 4.44191344 0 0 Z " fill="#ECE8E7" transform="translate(259,346)"/>
<path d="M0 0 C0.99 0.66 1.98 1.32 3 2 C3 2.66 3 3.32 3 4 C4.918125 4.185625 4.918125 4.185625 6.875 4.375 C10.75 4.75 10.75 4.75 13 7 C13.25 9.5 13.25 9.5 13 12 C10.16594345 14.83405655 7.95031797 14.67620345 4 15 C0.25 14.875 0.25 14.875 -3 14 C-4.75 11.5 -4.75 11.5 -6 9 C-6.99 8.67 -7.98 8.34 -9 8 C-9 8.66 -9 9.32 -9 10 C-10.32 10 -11.64 10 -13 10 C-12.04134491 12.33075929 -12.04134491 12.33075929 -9 14 C-11.64 14 -14.28 14 -17 14 C-17 12.68 -17 11.36 -17 10 C-18.32 10 -19.64 10 -21 10 C-21 11.32 -21 12.64 -21 14 C-21.66 14 -22.32 14 -23 14 C-23 11.36 -23 8.72 -23 6 C-23.99 6 -24.98 6 -26 6 C-26 8.64 -26 11.28 -26 14 C-26.66 14 -27.32 14 -28 14 C-28 11.36 -28 8.72 -28 6 C-28.66 5.67 -29.32 5.34 -30 5 C-27.03 5 -24.06 5 -21 5 C-21 5.99 -21 6.98 -21 8 C-20.01 8 -19.02 8 -18 8 C-18 6.68 -18 5.36 -18 4 C-17.24074219 4.02320313 -16.48148437 4.04640625 -15.69921875 4.0703125 C-14.20841797 4.09738281 -14.20841797 4.09738281 -12.6875 4.125 C-11.20830078 4.15980469 -11.20830078 4.15980469 -9.69921875 4.1953125 C-6.77593473 4.20682639 -6.77593473 4.20682639 -4 2 C-3.01 2 -2.02 2 -1 2 C-0.67 1.34 -0.34 0.68 0 0 Z " fill="#DEDAD8" transform="translate(306,364)"/>
<path d="M0 0 C5 1 5 1 6.36328125 2.62890625 C7.2421875 4.41927083 8.12109375 6.20963542 9 8 C9.33 5.36 9.66 2.72 10 0 C10.99 0 11.98 0 13 0 C13 4.95 13 9.9 13 15 C11.68 14.67 10.36 14.34 9 14 C5.72226496 14.75150023 5.72226496 14.75150023 4 18 C3.34 18 2.68 18 2 18 C1.67 18.66 1.34 19.32 1 20 C0.34 20.33 -0.32 20.66 -1 21 C-1.99 20.01 -2.98 19.02 -4 18 C-4.68707555 20.49064888 -5 22.37886292 -5 25 C-5 25.66 -5 26.32 -5 27 C-6.32 27.33 -7.64 27.66 -9 28 C-8.93039063 26.64068359 -8.93039063 26.64068359 -8.859375 25.25390625 C-8.62995922 17.51112365 -9.01278421 11.72842665 -13 5 C-10.13275314 5.57344937 -9.1385485 5.8614515 -7 8 C-6.01 7.67 -5.02 7.34 -4 7 C-2.9375 8.875 -2.9375 8.875 -2 11 C-2.33 11.66 -2.66 12.32 -3 13 C-2.01 13 -1.02 13 0 13 C0 8.71 0 4.42 0 0 Z " fill="#E9E6E3" transform="translate(210,346)"/>
<path d="M0 0 C1.32 0.66 2.64 1.32 4 2 C3.34 2.66 2.68 3.32 2 4 C1.55130827 8.6422434 1.55130827 8.6422434 3.0625 12.9375 C6.61803496 14.88730949 10.49254241 14.40742097 14.3125 13.375 C14.869375 13.25125 15.42625 13.1275 16 13 C18 15 18 15 18 18 C13.545 19.485 13.545 19.485 9 21 C9.33 21.66 9.66 22.32 10 23 C9.34 23 8.68 23 8 23 C8 25.31 8 27.62 8 30 C6.68 30 5.36 30 4 30 C4 27.69 4 25.38 4 23 C3.34 23 2.68 23 2 23 C2 24.65 2 26.3 2 28 C1.34 27.67 0.68 27.34 0 27 C0.33 25.68 0.66 24.36 1 23 C-0.98 23 -2.96 23 -5 23 C-4.67 26.63 -4.34 30.26 -4 34 C-4.99 34 -5.98 34 -7 34 C-6.67 30.04 -6.34 26.08 -6 22 C-7.32 21.67 -8.64 21.34 -10 21 C-9.67 20.34 -9.34 19.68 -9 19 C-6.4375 18.375 -6.4375 18.375 -4 18 C-4 17.34 -4 16.68 -4 16 C-4.66 15.67 -5.32 15.34 -6 15 C-5.34 14.01 -4.68 13.02 -4 12 C-3.67 12.66 -3.34 13.32 -3 14 C-2.01 14.33 -1.02 14.66 0 15 C0 10.05 0 5.1 0 0 Z " fill="#F0ECE5" transform="translate(223,346)"/>
<path d="M0 0 C3.3 0 6.6 0 10 0 C10 0.66 10 1.32 10 2 C7.69 2 5.38 2 3 2 C3 3.32 3 4.64 3 6 C4.98 6 6.96 6 9 6 C9 6.66 9 7.32 9 8 C7.02 8 5.04 8 3 8 C3 9.65 3 11.3 3 13 C5.31 13 7.62 13 10 13 C10 14.65 10 16.3 10 18 C10.66 18.33 11.32 18.66 12 19 C12 19.66 12 20.32 12 21 C14.31 21.66 16.62 22.32 19 23 C19 23.33 19 23.66 19 24 C17.35 24 15.7 24 14 24 C14 24.99 14 25.98 14 27 C15.32 27.33 16.64 27.66 18 28 C16.68 28 15.36 28 14 28 C14 28.99 14 29.98 14 31 C15.65 31 17.3 31 19 31 C19 31.33 19 31.66 19 32 C14 32 9 32 4 32 C3.91878076 30.39667209 3.86070866 28.79215974 3.8125 27.1875 C3.76029297 25.84751953 3.76029297 25.84751953 3.70703125 24.48046875 C4.05507861 21.53366775 4.80452713 20.88183389 7 19 C7.71447643 16.89667109 7.71447643 16.89667109 8 15 C5.36 15 2.72 15 0 15 C0 10.05 0 5.1 0 0 Z " fill="#A09C9B" transform="translate(316,346)"/>
<path d="M0 0 C1.98 0 3.96 0 6 0 C6.33 1.65 6.66 3.3 7 5 C7 3.35 7 1.7 7 0 C7.66 0 8.32 0 9 0 C9.33 2.31 9.66 4.62 10 7 C10.66 7 11.32 7 12 7 C12.33 4.69 12.66 2.38 13 0 C15.31 0 17.62 0 20 0 C20 2.64 20 5.28 20 8 C21.65 8 23.3 8 25 8 C25 5.36 25 2.72 25 0 C27.31 0 29.62 0 32 0 C32.625 3.375 32.625 3.375 33 7 C31 9 31 9 27.92724609 9.22705078 C26.63898926 9.21657715 25.35073242 9.20610352 24.0234375 9.1953125 C23.33819 9.1924826 22.6529425 9.18965271 21.94692993 9.18673706 C19.75610973 9.17553281 17.56569684 9.15042859 15.375 9.125 C13.8906309 9.11497048 12.4062554 9.10584458 10.921875 9.09765625 C7.28111739 9.07559294 3.64059844 9.04106176 0 9 C0 6.03 0 3.06 0 0 Z " fill="#423E3D" transform="translate(218,369)"/>
<path d="M0 0 C2.89360359 0.45994906 4.16049393 0.93404399 5.94140625 3.30859375 C6.5029422 7.73068936 6.74033687 10.03030476 4.37890625 13.80859375 C0.99252296 15.89252193 -1.15244693 15.86661472 -5.05859375 15.30859375 C-7.49609375 13.74609375 -7.49609375 13.74609375 -9.05859375 11.30859375 C-9.51170279 7.6837214 -9.44744917 5.25642884 -8.05859375 1.87109375 C-5.44922435 -0.16747609 -3.25020537 -0.19752629 0 0 Z " fill="#44403F" transform="translate(233.05859375,345.69140625)"/>
<path d="M0 0 C2.4375 0.9375 2.4375 0.9375 4 3 C4.55998349 6.10011478 4.55998349 8.89988522 4 12 C2.4375 14.0625 2.4375 14.0625 0 15 C-6.04164038 15.74195584 -6.04164038 15.74195584 -8.9375 13.5 C-10.53330773 9.74515828 -10.3886759 7.08109691 -10 3 C-7.82867609 -1.08719794 -4.198293 -0.44192558 0 0 Z " fill="#2E2B29" transform="translate(298,346)"/>
<path d="M0 0 C0.33 0 0.66 0 1 0 C1.33 1.65 1.66 3.3 2 5 C2.33 5 2.66 5 3 5 C3.06941159 15.13535144 3.12276615 25.27064664 3.15543652 35.40618706 C3.17111411 40.11218517 3.19239036 44.81802105 3.22631836 49.52392578 C3.25883745 54.0626498 3.27683723 58.60121748 3.28463173 63.14004898 C3.29018868 64.87447701 3.30103963 66.60889617 3.31719017 68.3432579 C3.33886587 70.76662658 3.34197113 73.18934347 3.34057617 75.61279297 C3.351362 76.33496002 3.36214783 77.05712708 3.3732605 77.80117798 C3.36076355 79.79830933 3.36076355 79.79830933 3 83 C1.515 83.99 1.515 83.99 0 85 C0 56.95 0 28.9 0 0 Z " fill="#352F2F" transform="translate(266,205)"/>
<path d="M0 0 C0.99 0.66 1.98 1.32 3 2 C3.66 1.34 4.32 0.68 5 0 C4.27991594 4.60853797 2.68704061 8.67237409 1 13 C2.65 13 4.3 13 6 13 C5.67 14.98 5.34 16.96 5 19 C4.34 18.67 3.68 18.34 3 18 C-0.2117961 19.63778399 -0.2117961 19.63778399 -0.51171875 22.3828125 C-0.56972656 23.28773438 -0.62773437 24.19265625 -0.6875 25.125 C-0.75324219 26.03507812 -0.81898438 26.94515625 -0.88671875 27.8828125 C-0.92410156 28.58148438 -0.96148437 29.28015625 -1 30 C-0.34 30 0.32 30 1 30 C0 32 0 32 -1 33 C-1.33 33.99 -1.66 34.98 -2 36 C-4 34.625 -4 34.625 -6 33 C-6 32.34 -6 31.68 -6 31 C-6.66 30.67 -7.32 30.34 -8 30 C-6.35 29.34 -4.7 28.68 -3 28 C-3 25.69 -3 23.38 -3 21 C-3.66 21 -4.32 21 -5 21 C-5 20.01 -5 19.02 -5 18 C-5.66 17.67 -6.32 17.34 -7 17 C-5.35 16.67 -3.7 16.34 -2 16 C-2 15.34 -2 14.68 -2 14 C-2.66 14 -3.32 14 -4 14 C-3.00956295 9.16371695 -2.04301154 4.52381127 0 0 Z " fill="#F4F1F0" transform="translate(253,348)"/>
<path d="M0 0 C2 1 2 1 2.84126282 2.81245422 C5.7352652 12.34334103 5.37935358 21.81281301 5.29296875 31.66796875 C5.2873636 33.55796469 5.28309785 35.44796503 5.28010559 37.33796692 C5.26872915 42.27813045 5.23932508 47.21802339 5.20599365 52.15808105 C5.17513635 57.21277203 5.16156699 62.26750733 5.14648438 67.32226562 C5.11444756 77.21496171 5.06333977 87.10745823 5 97 C4.67 97 4.34 97 4 97 C3.99413376 96.04422058 3.98826752 95.08844116 3.98222351 94.10369873 C3.92502253 85.09849914 3.85227477 76.09354165 3.76428509 67.08858871 C3.71954823 62.45897917 3.68029948 57.82945831 3.65356445 53.19970703 C3.62756446 48.73212876 3.58718567 44.26489113 3.53681374 39.7975235 C3.52012261 38.09272751 3.50862233 36.38787258 3.50238609 34.68300629 C3.49276923 32.29579416 3.46474019 29.90945791 3.43237305 27.52246094 C3.43380814 26.81683517 3.43524323 26.11120941 3.4367218 25.38420105 C3.35641868 21.19944069 2.67074442 19.16785047 0 16 C-0.125 12.375 -0.125 12.375 0 9 C-0.33 8.34 -0.66 7.68 -1 7 C-0.34 7 0.32 7 1 7 C0.4740625 5.824375 0.4740625 5.824375 -0.0625 4.625 C-0.371875 3.75875 -0.68125 2.8925 -1 2 C-0.67 1.34 -0.34 0.68 0 0 Z " fill="#3F3939" transform="translate(265,191)"/>
<path d="M0 0 C0.66 0 1.32 0 2 0 C2 0.66 2 1.32 2 2 C2.66 2 3.32 2 4 2 C4.33 2.33 4.66 2.66 5 3 C5.99 2.67 6.98 2.34 8 2 C8.763125 2.309375 9.52625 2.61875 10.3125 2.9375 C13.40838514 4.16145459 15.6975768 4.22016155 19 4 C19.66 3.67 20.32 3.34 21 3 C21.99 3.66 22.98 4.32 24 5 C23.01 5 22.02 5 21 5 C20.67 6.32 20.34 7.64 20 9 C20 8.34 20 7.68 20 7 C16.45481116 8.39759905 16.45481116 8.39759905 13 10 C11.28766312 9.9129796 9.57824594 9.75902838 7.875 9.5625 C6.50988281 9.40974609 6.50988281 9.40974609 5.1171875 9.25390625 C4.41851562 9.17011719 3.71984375 9.08632813 3 9 C3 10.32 3 11.64 3 13 C2.01 13 1.02 13 0 13 C0 11.35 0 9.7 0 8 C0.66 8 1.32 8 2 8 C1.67 6.68 1.34 5.36 1 4 C0.401875 4.350625 -0.19625 4.70125 -0.8125 5.0625 C-3 6 -3 6 -6 5 C-4.6875 3.5 -4.6875 3.5 -3 2 C-2.01 2 -1.02 2 0 2 C0 1.34 0 0.68 0 0 Z " fill="#F7F3F1" transform="translate(285,359)"/>
<path d="M0 0 C1.258125 -0.04125 2.51625 -0.0825 3.8125 -0.125 C4.52019531 -0.14820313 5.22789062 -0.17140625 5.95703125 -0.1953125 C8 0 8 0 11 2 C10.67 3.98 10.34 5.96 10 8 C9.34 8 8.68 8 8 8 C8.99 10.31 9.98 12.62 11 15 C9.125 14.75 9.125 14.75 7 14 C5.875 12 5.875 12 5 10 C4.34 9.67 3.68 9.34 3 9 C3 10.98 3 12.96 3 15 C2.01 15 1.02 15 0 15 C0 10.05 0 5.1 0 0 Z " fill="#2D2B29" transform="translate(304,346)"/>
<path d="M0 0 C5 1 5 1 6.36328125 2.62890625 C7.2421875 4.41927083 8.12109375 6.20963542 9 8 C9.33 5.36 9.66 2.72 10 0 C10.99 0 11.98 0 13 0 C13 4.95 13 9.9 13 15 C8.04030427 13.76007607 7.55634749 12.23119585 5 8 C4.67 7.67 4.34 7.34 4 7 C3.67 9.64 3.34 12.28 3 15 C2.01 15 1.02 15 0 15 C0 10.05 0 5.1 0 0 Z " fill="#393634" transform="translate(210,346)"/>
<path d="M0 0 C3.3 0 6.6 0 10 0 C10 0.66 10 1.32 10 2 C8.35 2 6.7 2 5 2 C5 2.99 5 3.98 5 5 C6.32 5.33 7.64 5.66 9 6 C7.68 6 6.36 6 5 6 C5.95865509 8.33075929 5.95865509 8.33075929 9 10 C6.36 10 3.72 10 1 10 C1 8.68 1 7.36 1 6 C-0.32 6 -1.64 6 -3 6 C-3 7.32 -3 8.64 -3 10 C-3.66 10 -4.32 10 -5 10 C-5 7.36 -5 4.72 -5 2 C-5.99 2 -6.98 2 -8 2 C-8 4.64 -8 7.28 -8 10 C-8.66 10 -9.32 10 -10 10 C-10 7.36 -10 4.72 -10 2 C-10.66 1.67 -11.32 1.34 -12 1 C-9.03 1 -6.06 1 -3 1 C-3 1.99 -3 2.98 -3 4 C-2.01 4 -1.02 4 0 4 C0 2.68 0 1.36 0 0 Z " fill="#423E3D" transform="translate(288,368)"/>
<path d="M0 0 C0.33 0.99 0.66 1.98 1 3 C12.22 3 23.44 3 35 3 C35.495 4.98 35.495 4.98 36 7 C24.45 7 12.9 7 1 7 C0.67 4.69 0.34 2.38 0 0 Z " fill="#3A3031" transform="translate(165,328)"/>
<path d="M0 0 C1.98 0 3.96 0 6 0 C6 4.95 6 9.9 6 15 C6.99 15 7.98 15 9 15 C9 13.02 9 11.04 9 9 C9.99 9.33 10.98 9.66 12 10 C13.44166296 13.08927778 14.30235365 14.98299228 13.3125 18.3125 C12 20 12 20 9 21 C8.67 19.68 8.34 18.36 8 17 C7.34 17.33 6.68 17.66 6 18 C-1.37560976 18.46829268 -1.37560976 18.46829268 -4 16.5 C-4.33 16.005 -4.66 15.51 -5 15 C-3.865625 14.690625 -2.73125 14.38125 -1.5625 14.0625 C1.78775099 13.37075469 1.78775099 13.37075469 3 12 C3.23820921 9.96729438 3.23820921 9.96729438 3.25 7.625 C3.27578125 6.83351563 3.3015625 6.04203125 3.328125 5.2265625 C2.93070018 2.52975122 2.07493465 1.69270985 0 0 Z " fill="#ECE8E5" transform="translate(298,346)"/>
<path d="M0 0 C1.32 0 2.64 0 4 0 C4.67467562 1.74692795 5.33944156 3.49768525 6 5.25 C6.556875 6.71179688 6.556875 6.71179688 7.125 8.203125 C8 11 8 11 8 15 C7.01 14.67 6.02 14.34 5 14 C5 13.01 5 12.02 5 11 C3.02 11.33 1.04 11.66 -1 12 C-1.33 12.99 -1.66 13.98 -2 15 C-2.99 15 -3.98 15 -5 15 C-1.92482916 4.44191344 -1.92482916 4.44191344 0 0 Z " fill="#302C2B" transform="translate(259,346)"/>
<path d="M0 0 C1.4370809 -0.05422947 2.87475462 -0.09289723 4.3125 -0.125 C5.11300781 -0.14820313 5.91351563 -0.17140625 6.73828125 -0.1953125 C9 0 9 0 12 2 C11.01 2.495 11.01 2.495 10 3 C10.33 3.66 10.66 4.32 11 5 C10.34 5 9.68 5 9 5 C9 7.31 9 9.62 9 12 C7.68 12 6.36 12 5 12 C5 9.69 5 7.38 5 5 C4.34 5 3.68 5 3 5 C3 6.65 3 8.3 3 10 C2.34 9.67 1.68 9.34 1 9 C1.33 7.68 1.66 6.36 2 5 C0.02 5 -1.96 5 -4 5 C-3.67 8.63 -3.34 12.26 -3 16 C-3.99 16 -4.98 16 -6 16 C-5.67 12.04 -5.34 8.08 -5 4 C-2.69 3.34 -0.38 2.68 2 2 C1.01 2.33 0.02 2.66 -1 3 C-0.67 2.01 -0.34 1.02 0 0 Z " fill="#E6E2E0" transform="translate(222,364)"/>
<path d="M0 0 C4 2 4 2 5 4 C5.33 2.68 5.66 1.36 6 0 C9.33333333 0 12.66666667 0 16 0 C16.33 0.99 16.66 1.98 17 3 C16.34 3 15.68 3 15 3 C15 2.34 15 1.68 15 1 C13.68 1.33 12.36 1.66 11 2 C11 3.32 11 4.64 11 6 C12.32 6.33 13.64 6.66 15 7 C15 6.34 15 5.68 15 5 C14.34 4.67 13.68 4.34 13 4 C14.32 4 15.64 4 17 4 C17 5.65 17 7.3 17 9 C13 9 9 9 5 9 C4.34 7.68 3.68 6.36 3 5 C2.67 6.32 2.34 7.64 2 9 C1.34 9 0.68 9 0 9 C0 6.03 0 3.06 0 0 Z " fill="#524E4D" transform="translate(255,369)"/>
<path d="M0 0 C1.98 0 3.96 0 6 0 C6.33 1.65 6.66 3.3 7 5 C7 3.35 7 1.7 7 0 C7.66 0 8.32 0 9 0 C9.33 2.31 9.66 4.62 10 7 C10.66 7 11.32 7 12 7 C12.33 4.69 12.66 2.38 13 0 C13.33 0 13.66 0 14 0 C14 2.64 14 5.28 14 8 C9.29654425 9.21379503 4.82569313 9.07202527 0 9 C0 6.03 0 3.06 0 0 Z " fill="#5E5A59" transform="translate(218,369)"/>
<path d="M0 0 C0.99 0 1.98 0 3 0 C4.32 3.3 5.64 6.6 7 10 C8.32 6.7 9.64 3.4 11 0 C11.99 0 12.98 0 14 0 C10.92482916 10.55808656 10.92482916 10.55808656 9 15 C7.35 14.67 5.7 14.34 4 14 C3.32968281 12.0429132 2.66385317 10.08428887 2 8.125 C1.62875 7.03445313 1.2575 5.94390625 0.875 4.8203125 C0 2 0 2 0 0 Z " fill="#3A3635" transform="translate(240,346)"/>
<path d="M0 0 C3.3 0 6.6 0 10 0 C10 0.66 10 1.32 10 2 C7.69 2 5.38 2 3 2 C3 3.32 3 4.64 3 6 C4.98 6 6.96 6 9 6 C9 6.66 9 7.32 9 8 C7.02 8 5.04 8 3 8 C3 9.65 3 11.3 3 13 C5.31 13 7.62 13 10 13 C10 13.66 10 14.32 10 15 C6.7 15 3.4 15 0 15 C0 10.05 0 5.1 0 0 Z " fill="#322F2D" transform="translate(316,346)"/>
<path d="M0 0 C1.4540625 0.0309375 1.4540625 0.0309375 2.9375 0.0625 C2.9375 0.7225 2.9375 1.3825 2.9375 2.0625 C3.5975 2.0625 4.2575 2.0625 4.9375 2.0625 C4.0625 8.9375 4.0625 8.9375 2.9375 10.0625 C0 10.25 0 10.25 -3.0625 10.0625 C-3.7225 9.4025 -4.3825 8.7425 -5.0625 8.0625 C-4.36307389 0.08904232 -4.36307389 0.08904232 0 0 Z " fill="#D0CECC" transform="translate(295.0625,347.9375)"/>
<path d="M0 0 C0.99 0.66 1.98 1.32 3 2 C3 2.99 3 3.98 3 5 C2.01 5 1.02 5 0 5 C-0.33 4.34 -0.66 3.68 -1 3 C-3.52733235 2.34444881 -3.52733235 2.34444881 -6 2 C-6.165 3.27875 -6.33 4.5575 -6.5 5.875 C-6.5928125 6.59429687 -6.685625 7.31359375 -6.78125 8.0546875 C-7.0372485 10.00498344 -7.0372485 10.00498344 -7 12 C-5.02 12 -3.04 12 -1 12 C-0.67 11.34 -0.34 10.68 0 10 C0.99 10 1.98 10 3 10 C3 10.66 3 11.32 3 12 C2.34 12 1.68 12 1 12 C0.67 12.99 0.34 13.98 0 15 C-6.3782235 15.48137536 -6.3782235 15.48137536 -8.9375 13.5 C-10.53330773 9.74515828 -10.3886759 7.08109691 -10 3 C-7.82738374 -1.0896306 -4.19992962 -0.37499372 0 0 Z " fill="#363331" transform="translate(283,346)"/>
<path d="M0 0 C2.5 0.25 2.5 0.25 4.5 2.25 C4.6875 5.8125 4.6875 5.8125 4.5 9.25 C3.5 10.25 3.5 10.25 0.5625 10.4375 C-2.5 10.25 -2.5 10.25 -4.5 8.25 C-4.75 5.25 -4.75 5.25 -4.5 2.25 C-2.5 0.25 -2.5 0.25 0 0 Z " fill="#E5E1E0" transform="translate(231.5,347.75)"/>
<path d="M0 0 C4.7312253 1.49407115 4.7312253 1.49407115 6.0625 4 C6.371875 4.66 6.68125 5.32 7 6 C9.0335948 7.26804566 9.0335948 7.26804566 11 8 C9.02 8.99 9.02 8.99 7 10 C8.32 10.33 9.64 10.66 11 11 C7.25 12.125 7.25 12.125 5 11 C4.34 11.165 3.68 11.33 3 11.5 C1 12 1 12 -1 11 C-0.34 10.34 0.32 9.68 1 9 C1 8.01 1 7.02 1 6 C-0.32 5.67 -1.64 5.34 -3 5 C-3 4.34 -3 3.68 -3 3 C-1.68 3 -0.36 3 1 3 C0.67 2.01 0.34 1.02 0 0 Z " fill="#DFDBDA" transform="translate(296,371)"/>
<path d="M0 0 C0.99 0.99 1.98 1.98 3 3 C3 3.66 3 4.32 3 5 C3.99 5 4.98 5 6 5 C6.33 4.01 6.66 3.02 7 2 C7.33 2.66 7.66 3.32 8 4 C10.34386809 4.91031272 10.34386809 4.91031272 13.0625 5.625 C14.44115234 6.01558594 14.44115234 6.01558594 15.84765625 6.4140625 C16.55792969 6.60742188 17.26820313 6.80078125 18 7 C18 7.99 18 8.98 18 10 C17.4225 9.814375 16.845 9.62875 16.25 9.4375 C14.03680625 8.82930802 14.03680625 8.82930802 12.0625 9.5625 C9.22437012 10.16452755 7.56799293 9.21266333 5 8 C5 8.66 5 9.32 5 10 C3.68 9.67 2.36 9.34 1 9 C0.67 6.03 0.34 3.06 0 0 Z " fill="#EBE7E6" transform="translate(257,373)"/>
<path d="M0 0 C2.875 -0.125 2.875 -0.125 6 0 C8 2 8 2 8.25 4.5 C8 7 8 7 6 9 C3.5 9.25 3.5 9.25 1 9 C0.34 8.34 -0.32 7.68 -1 7 C-0.625 3.375 -0.625 3.375 0 0 Z " fill="#454140" transform="translate(311,369)"/>
<path d="M0 0 C2.31 0 4.62 0 7 0 C7.80967438 2.91482778 8.21845993 4.46113217 7.0625 7.3125 C6.5365625 8.1478125 6.5365625 8.1478125 6 9 C4.02 9 2.04 9 0 9 C0 6.03 0 3.06 0 0 Z " fill="#3B3736" transform="translate(320,369)"/>
<path d="M0 0 C0 0.66 0 1.32 0 2 C1.32 2.33 2.64 2.66 4 3 C4 4.32 4 5.64 4 7 C5.65 7.33 7.3 7.66 9 8 C9 9.32 9 10.64 9 12 C9.33 12.66 9.66 13.32 10 14 C6.87729974 12.58884686 4.50346319 10.889376 1.9375 8.625 C0.93009766 7.74714844 0.93009766 7.74714844 -0.09765625 6.8515625 C-1.97541411 5.0239296 -3.48949607 3.13635135 -5 1 C-3 0 -3 0 0 0 Z " fill="#4F4546" transform="translate(246,317)"/>
<path d="M0 0 C2 1 2 1 2.8515625 3.22265625 C4.42772789 9.00988978 5.33939658 14.00399381 5 20 C4.01 20 3.02 20 2 20 C-0.33605191 16.3499189 -0.07854168 13.24125079 0 9 C-0.33 8.34 -0.66 7.68 -1 7 C-0.34 7 0.32 7 1 7 C0.4740625 5.824375 0.4740625 5.824375 -0.0625 4.625 C-0.371875 3.75875 -0.68125 2.8925 -1 2 C-0.67 1.34 -0.34 0.68 0 0 Z " fill="#4E4848" transform="translate(265,191)"/>
<path d="M0 0 C1.98 0.99 1.98 0.99 4 2 C3.34 2.66 2.68 3.32 2 4 C1.45734114 8.61559472 1.45734114 8.61559472 3.2265625 12.7109375 C5.52304846 14.38018941 6.87973842 14.30957659 9.6875 14.1875 C10.89986328 14.14689453 10.89986328 14.14689453 12.13671875 14.10546875 C12.75160156 14.07066406 13.36648437 14.03585937 14 14 C14 14.99 14 15.98 14 17 C9.71 17 5.42 17 1 17 C-0.53266582 13.93466836 -0.10276471 10.73245728 -0.0625 7.375 C-0.05798828 6.66859375 -0.05347656 5.9621875 -0.04882812 5.234375 C-0.03703875 3.48954725 -0.01910324 1.744763 0 0 Z " fill="#E9E5E4" transform="translate(223,346)"/>
<path d="M0 0 C3.3 0 6.6 0 10 0 C10 0.66 10 1.32 10 2 C8.35 2 6.7 2 5 2 C5 2.99 5 3.98 5 5 C6.32 5.33 7.64 5.66 9 6 C7.68 6 6.36 6 5 6 C5.95865509 8.33075929 5.95865509 8.33075929 9 10 C6.69 10 4.38 10 2 10 C1.7834375 8.63875 1.7834375 8.63875 1.5625 7.25 C1.14089532 4.81406186 0.5995854 2.39834161 0 0 Z " fill="#797574" transform="translate(288,368)"/>
<path d="M0 0 C4.03067352 -0.39006518 6.75558038 -0.49776785 10.5 1 C12.9023404 4.20312054 12.25747761 7.07346641 12 11 C11.34 11 10.68 11 10 11 C10 8.69 10 6.38 10 4 C7.36 3.67 4.72 3.34 2 3 C1.525625 3.825 1.05125 4.65 0.5625 5.5 C0.046875 6.325 -0.46875 7.15 -1 8 C-1.33 8 -1.66 8 -2 8 C-2.20086443 4.28400809 -2.1519437 3.22791555 0 0 Z " fill="#302C2B" transform="translate(227,346)"/>
<path d="M0 0 C3 1 3 1 5 3 C4.34 3 3.68 3 3 3 C3 3.66 3 4.32 3 5 C2.34 5 1.68 5 1 5 C1 5.66 1 6.32 1 7 C-0.6396875 7.2165625 -0.6396875 7.2165625 -2.3125 7.4375 C-5.93122987 7.88288104 -5.93122987 7.88288104 -9 9 C-9 8.01 -9 7.02 -9 6 C-7.68 5.67 -6.36 5.34 -5 5 C-5.33 4.34 -5.66 3.68 -6 3 C-5.195625 2.690625 -4.39125 2.38125 -3.5625 2.0625 C-1.10919595 1.23664655 -1.10919595 1.23664655 0 0 Z " fill="#E5E1E0" transform="translate(284,362)"/>
<path d="M0 0 C0.33 0.66 0.66 1.32 1 2 C-0.0209375 2.185625 -0.0209375 2.185625 -1.0625 2.375 C-2.031875 2.58125 -3.00125 2.7875 -4 3 C-5.216875 3.2475 -6.43375 3.495 -7.6875 3.75 C-11.18325698 4.6585465 -11.18325698 4.6585465 -12.4375 7.625 C-12.7159375 8.800625 -12.7159375 8.800625 -13 10 C-13.66 9.34 -14.32 8.68 -15 8 C-15.99 8.495 -15.99 8.495 -17 9 C-15.50521886 5.19510255 -13.30557786 3.33809165 -10 1 C-6.52674819 -0.1577506 -3.63932552 -0.06866652 0 0 Z " fill="#E3DFDE" transform="translate(220,196)"/>
<path d="M0 0 C1.65 0 3.3 0 5 0 C5 2.97 5 5.94 5 9 C3.02 9 1.04 9 -1 9 C-0.67 6.03 -0.34 3.06 0 0 Z " fill="#898584" transform="translate(232,369)"/>
<path d="M0 0 C4.31395349 8.01162791 4.31395349 8.01162791 3.625 12.375 C3.41875 12.91125 3.2125 13.4475 3 14 C2.01 13.67 1.02 13.34 0 13 C-0.99 13.495 -0.99 13.495 -2 14 C-2 12.68 -2 11.36 -2 10 C-2.66 10 -3.32 10 -4 10 C-4 9.34 -4 8.68 -4 8 C-3.34 8 -2.68 8 -2 8 C-1.67 7.01 -1.34 6.02 -1 5 C-0.67 5.33 -0.34 5.66 0 6 C0 4.02 0 2.04 0 0 Z " fill="#E7E4E3" transform="translate(228,288)"/>
<path d="M0 0 C1.32 0 2.64 0 4 0 C4 0.66 4 1.32 4 2 C5.32 2 6.64 2 8 2 C8 2.66 8 3.32 8 4 C8.99 4 9.98 4 11 4 C10.67 4.66 10.34 5.32 10 6 C9.01 5.67 8.02 5.34 7 5 C7.33 6.32 7.66 7.64 8 9 C7.01 8.67 6.02 8.34 5 8 C5.33 6.35 5.66 4.7 6 3 C5.01 3.495 5.01 3.495 4 4 C4 4.66 4 5.32 4 6 C2.35 5.67 0.7 5.34 -1 5 C-0.67 3.35 -0.34 1.7 0 0 Z " fill="#DCD8D7" transform="translate(266,370)"/>
<path d="M0 0 C0.66 0.99 1.32 1.98 2 3 C1.67 3.99 1.34 4.98 1 6 C0.34 5.67 -0.32 5.34 -1 5 C-1 7.97 -1 10.94 -1 14 C-1.99 14 -2.98 14 -4 14 C-4 10.04 -4 6.08 -4 2 C-2.68 1.34 -1.36 0.68 0 0 Z " fill="#A8A4A3" transform="translate(256,364)"/>
<path d="M0 0 C1.32 0 2.64 0 4 0 C3.835 0.598125 3.67 1.19625 3.5 1.8125 C2.8885876 4.11344336 2.8885876 4.11344336 3 7 C3.99 6.67 4.98 6.34 6 6 C6.99 6.66 7.98 7.32 9 8 C6.09399739 9.25664978 4.20395416 10 1 10 C-2 6.66666667 -2 6.66666667 -2 4 C-1.34 4 -0.68 4 0 4 C0 2.68 0 1.36 0 0 Z " fill="#EBE7E6" transform="translate(285,374)"/>
<path d="M0 0 C0.66 0.33 1.32 0.66 2 1 C2 4 2 4 0.5625 6.0625 C-1.65688207 10.23493828 -1.73742932 14.33710684 -2 19 C-2.33 19 -2.66 19 -3 19 C-3.27565727 16.39623726 -3.52127265 13.79544032 -3.75 11.1875 C-3.83121094 10.44951172 -3.91242188 9.71152344 -3.99609375 8.95117188 C-4.171875 6.79296875 -4.171875 6.79296875 -4 3 C-2.015625 0.98828125 -2.015625 0.98828125 0 0 Z " fill="#484242" transform="translate(204,197)"/>
<path d="M0 0 C1.32 0.33 2.64 0.66 4 1 C4 2.98 4 4.96 4 7 C5.65 7 7.3 7 9 7 C8.67 8.98 8.34 10.96 8 13 C7.67 12.34 7.34 11.68 7 11 C6.01 10.67 5.02 10.34 4 10 C3.67 10.33 3.34 10.66 3 11 C2.34 10.67 1.68 10.34 1 10 C1.20625 9.46375 1.4125 8.9275 1.625 8.375 C2.1314747 5.16732692 1.15400225 2.98682934 0 0 Z " fill="#E6E3DE" transform="translate(312,354)"/>
<path d="M0 0 C4 2 4 2 5 4 C5.66 2.68 6.32 1.36 7 0 C7 2.97 7 5.94 7 9 C6.34 9 5.68 9 5 9 C4.34 7.68 3.68 6.36 3 5 C2.67 6.32 2.34 7.64 2 9 C1.34 9 0.68 9 0 9 C0 6.03 0 3.06 0 0 Z " fill="#433F3E" transform="translate(255,369)"/>
<path d="M0 0 C0.99 0.66 1.98 1.32 3 2 C3 2.99 3 3.98 3 5 C-3.25307239 5.83288874 -8.76817361 6.03863773 -15 5 C-14.67 4.01 -14.34 3.02 -14 2 C-14 2.66 -14 3.32 -14 4 C-12.04082341 3.9131252 -10.08258129 3.80495488 -8.125 3.6875 C-7.03445312 3.62949219 -5.94390625 3.57148438 -4.8203125 3.51171875 C-3.88960937 3.34285156 -2.95890625 3.17398437 -2 3 C-1.34 2.01 -0.68 1.02 0 0 Z " fill="#F8F5F4" transform="translate(238,359)"/>
<path d="M0 0 C0.99 0 1.98 0 3 0 C2.54803755 1.60597325 2.08817673 3.20972508 1.625 4.8125 C1.36976563 5.70582031 1.11453125 6.59914063 0.8515625 7.51953125 C0 10 0 10 -2 13 C-2.99 12.34 -3.98 11.68 -5 11 C-3.35 7.37 -1.7 3.74 0 0 Z " fill="#474342" transform="translate(251,346)"/>
<path d="M0 0 C1.98 0 3.96 0 6 0 C6.33 0.99 6.66 1.98 7 3 C6.34 3 5.68 3 5 3 C5 2.34 5 1.68 5 1 C4.01 1.33 3.02 1.66 2 2 C1.67 3.65 1.34 5.3 1 7 C2.98 6.67 4.96 6.34 7 6 C6.67 6.99 6.34 7.98 6 9 C3.625 9.125 3.625 9.125 1 9 C0.34 8.34 -0.32 7.68 -1 7 C-0.625 3.375 -0.625 3.375 0 0 Z " fill="#4A4645" transform="translate(302,369)"/>
<path d="M0 0 C0.33 0.66 0.66 1.32 1 2 C1.99 2 2.98 2 4 2 C4.33 3.98 4.66 5.96 5 8 C2.69 8 0.38 8 -2 8 C-1.47731534 5.23723823 -0.89130413 2.6739124 0 0 Z " fill="#7A7675" transform="translate(258,348)"/>
<path d="M0 0 C-7 3.5 -7 3.5 -14 7 C-13.69921875 4.6171875 -13.69921875 4.6171875 -13 2 C-8.33009782 -0.74700128 -5.23295332 -1.40396309 0 0 Z " fill="#E9E2E2" transform="translate(198,163)"/>
<path d="M0 0 C1.98 0 3.96 0 6 0 C6.33 1.98 6.66 3.96 7 6 C4.36 5.34 1.72 4.68 -1 4 C-0.67 2.68 -0.34 1.36 0 0 Z " fill="#DBD7D6" transform="translate(258,357)"/>
<path d="M0 0 C0.639375 0.165 1.27875 0.33 1.9375 0.5 C4.04582216 1.24598544 4.04582216 1.24598544 6 0 C6.75 2.25 6.75 2.25 7 5 C5.0625 7.3125 5.0625 7.3125 3 9 C1.66666667 6.33333333 0.33333333 3.66666667 -1 1 C-0.67 0.67 -0.34 0.34 0 0 Z " fill="#ECE6E7" transform="translate(265,187)"/>
<path d="M0 0 C0.33 0.66 0.66 1.32 1 2 C3.31 2 5.62 2 8 2 C8.33 3.32 8.66 4.64 9 6 C7.54119891 5.85892253 6.08296449 5.71197585 4.625 5.5625 C3.40683594 5.44068359 3.40683594 5.44068359 2.1640625 5.31640625 C0 5 0 5 -2 4 C-1.34 2.68 -0.68 1.36 0 0 Z " fill="#EFEBEA" transform="translate(327,376)"/>
<path d="M0 0 C0.33 0 0.66 0 1 0 C1 2.97 1 5.94 1 9 C1.66 9 2.32 9 3 9 C2 11 2 11 1 12 C0.67 12.99 0.34 13.98 0 15 C-2 13.625 -2 13.625 -4 12 C-4 11.34 -4 10.68 -4 10 C-4.66 9.67 -5.32 9.34 -6 9 C-4.35 8.34 -2.7 7.68 -1 7 C-1.020625 6.030625 -1.04125 5.06125 -1.0625 4.0625 C-1 1 -1 1 0 0 Z " fill="#E5E1E0" transform="translate(251,369)"/>
<path d="M0 0 C0.99 0.66 1.98 1.32 3 2 C3.66 1.34 4.32 0.68 5 0 C4.32829194 3.8063457 3.27253436 7.35206816 2 11 C-0.2477975 8.94766315 -1.0022242 7.99332739 -2 5 C-1.0625 2.3125 -1.0625 2.3125 0 0 Z " fill="#E3DFDE" transform="translate(253,348)"/>
<path d="M0 0 C1.98 0 3.96 0 6 0 C6 3.96 6 7.92 6 12 C5.34 12 4.68 12 4 12 C3.96261719 11.38511719 3.92523438 10.77023437 3.88671875 10.13671875 C3.82097656 9.32847656 3.75523437 8.52023437 3.6875 7.6875 C3.62949219 6.88699219 3.57148438 6.08648437 3.51171875 5.26171875 C2.91793306 2.63727666 2.04219706 1.69179328 0 0 Z " fill="#CFCCCB" transform="translate(298,346)"/>
<path d="M0 0 C0 0.66 0 1.32 0 2 C0.66 2 1.32 2 2 2 C2 2.99 2 3.98 2 5 C-2.875 3.125 -2.875 3.125 -4 2 C-5.51928038 1.92820036 -7.04167482 1.91607993 -8.5625 1.9375 C-9.80193359 1.95103516 -9.80193359 1.95103516 -11.06640625 1.96484375 C-12.02353516 1.98224609 -12.02353516 1.98224609 -13 2 C-12.67 1.34 -12.34 0.68 -12 0 C-7.70057734 -0.90949326 -4.25063401 -1.15926382 0 0 Z " fill="#4F4647" transform="translate(224,195)"/>
<path d="M0 0 C0.99 0.99 1.98 1.98 3 3 C3 2.01 3 1.02 3 0 C5 1 5 1 6 3 C5.01 3.495 5.01 3.495 4 4 C3.67 4.99 3.34 5.98 3 7 C0.03 6.505 0.03 6.505 -3 6 C-2.67 5.34 -2.34 4.68 -2 4 C-2.66 3.34 -3.32 2.68 -4 2 C-2.68 1.34 -1.36 0.68 0 0 Z " fill="#373030" transform="translate(204,192)"/>
<path d="M0 0 C0 0.66 0 1.32 0 2 C-0.66 2 -1.32 2 -2 2 C-2 3.32 -2 4.64 -2 6 C-2 6.99 -2 7.98 -2 9 C-3.65 9.33 -5.3 9.66 -7 10 C-6.34 8.68 -5.68 7.36 -5 6 C-5.66 5.67 -6.32 5.34 -7 5 C-6 2 -6 2 -4.0625 0.8125 C-2 0 -2 0 0 0 Z " fill="#4D4143" transform="translate(194,165)"/>
<path d="M0 0 C0.33 0 0.66 0 1 0 C2.27253436 3.64793184 3.32829194 7.1936543 4 11 C3.34 11 2.68 11 2 11 C2 10.34 2 9.68 2 9 C1.34 9 0.68 9 0 9 C0 8.34 0 7.68 0 7 C-0.66 7 -1.32 7 -2 7 C-2 7.66 -2 8.32 -2 9 C-2.66 8.67 -3.32 8.34 -4 8 C-3.67 7.34 -3.34 6.68 -3 6 C-2.34 6 -1.68 6 -1 6 C-1.33 5.01 -1.66 4.02 -2 3 C-1.34 3 -0.68 3 0 3 C0 2.01 0 1.02 0 0 Z " fill="#C6C2C1" transform="translate(287,352)"/>
<path d="M0 0 C1.55078125 1.20703125 1.55078125 1.20703125 3 3 C2.85546875 5.26171875 2.85546875 5.26171875 2.1875 7.6875 C1.97480469 8.49574219 1.76210938 9.30398438 1.54296875 10.13671875 C1.36378906 10.75160156 1.18460937 11.36648438 1 12 C-0.87501642 8.43904445 -1.95330847 4.8877114 -3 1 C-2.01 1.33 -1.02 1.66 0 2 C0 1.34 0 0.68 0 0 Z " fill="#E2DEDD" transform="translate(267,349)"/>
<path d="M0 0 C1.98 0 3.96 0 6 0 C5.278125 0.53625 4.55625 1.0725 3.8125 1.625 C0.752158 4.2092888 -1.51220011 6.87248014 -4 10 C-5.0625 8.125 -5.0625 8.125 -6 6 C-5.67 5.34 -5.34 4.68 -5 4 C-3.68 4 -2.36 4 -1 4 C-0.67 2.68 -0.34 1.36 0 0 Z " fill="#E4DFDE" transform="translate(168,346)"/>
<path d="M0 0 C0.66 0 1.32 0 2 0 C2 0.66 2 1.32 2 2 C2.99 2 3.98 2 5 2 C5 2.66 5 3.32 5 4 C4.34 4 3.68 4 3 4 C4.2375 5.1446875 4.2375 5.1446875 5.5 6.3125 C8 9 8 9 8 12 C7.34 12 6.68 12 6 12 C2.35242821 8.2384416 1.16815745 4.96466917 0 0 Z " fill="#5A4F50" transform="translate(233,304)"/>
<path d="M0 0 C0.33 0.66 0.66 1.32 1 2 C-5.92727273 4.30909091 -5.92727273 4.30909091 -10 3 C-10 2.01 -10 1.02 -10 0 C-6.33291043 -0.94296589 -3.64653273 -1.11421833 0 0 Z " fill="#EBE8E7" transform="translate(229,378)"/>
<path d="M0 0 C2.97 0 5.94 0 9 0 C9 0.99 9 1.98 9 3 C6.04335481 4.4783226 3.25770263 4.06032783 0 4 C-0.33 3.34 -0.66 2.68 -1 2 C-0.67 1.34 -0.34 0.68 0 0 Z " fill="#484443" transform="translate(291,357)"/>
<path d="M0 0 C1.98 0 3.96 0 6 0 C5.67 0.66 5.34 1.32 5 2 C5.99 2.33 6.98 2.66 8 3 C8 3.66 8 4.32 8 5 C5.36 5 2.72 5 0 5 C0 3.35 0 1.7 0 0 Z " fill="#D4D1CF" transform="translate(319,354)"/>
<path d="M0 0 C2.625 -0.1875 2.625 -0.1875 5 0 C4.01 0.33 3.02 0.66 2 1 C2 2.32 2 3.64 2 5 C1.34 5 0.68 5 0 5 C0.33 6.65 0.66 8.3 1 10 C0.34 10 -0.32 10 -1 10 C-2.25 3.375 -2.25 3.375 0 0 Z " fill="#CDCBC9" transform="translate(277,348)"/>
<path d="M0 0 C1.32 1.32 2.64 2.64 4 4 C3.67 4.66 3.34 5.32 3 6 C1.35 5.67 -0.3 5.34 -2 5 C-1.67 5.99 -1.34 6.98 -1 8 C-1.99 7.67 -2.98 7.34 -4 7 C-3.39816251 4.97954558 -2.72693904 2.97888961 -2 1 C-1.34 0.67 -0.68 0.34 0 0 Z " fill="#474141" transform="translate(300,288)"/>
<path d="M0 0 C0.99 0 1.98 0 3 0 C3 0.66 3 1.32 3 2 C3.66 2 4.32 2 5 2 C4.34 3.32 3.68 4.64 3 6 C1.68 6 0.36 6 -1 6 C-1.042721 4.33388095 -1.04063832 2.66617115 -1 1 C-0.67 0.67 -0.34 0.34 0 0 Z " fill="#E9E5E4" transform="translate(304,370)"/>
<path d="M0 0 C2.0625 0.4375 2.0625 0.4375 4 1 C4 2.65 4 4.3 4 6 C2.35 6 0.7 6 -1 6 C-1.042721 4.33388095 -1.04063832 2.66617115 -1 1 C-0.67 0.67 -0.34 0.34 0 0 Z " fill="#E5E1E0" transform="translate(313,370)"/>
<path d="M0 0 C1.32 0.66 2.64 1.32 4 2 C3.67 3.65 3.34 5.3 3 7 C0.36 7.66 -2.28 8.32 -5 9 C-4.67 8.01 -4.34 7.02 -4 6 C-3.01 6 -2.02 6 -1 6 C-0.67 4.02 -0.34 2.04 0 0 Z " fill="#F8F5F4" transform="translate(269,355)"/>
<path d="M0 0 C1.32 1.32 2.64 2.64 4 4 C3.01 5.485 3.01 5.485 2 7 C1.67 7 1.34 7 1 7 C-0.66821323 7.32550502 -2.33499557 7.65846063 -4 8 C-3.01 7.67 -2.02 7.34 -1 7 C-1 6.34 -1 5.68 -1 5 C-2.32 5.33 -3.64 5.66 -5 6 C-5 5.34 -5 4.68 -5 4 C-3.35 3.34 -1.7 2.68 0 2 C0 1.34 0 0.68 0 0 Z " fill="#544B4C" transform="translate(255,176)"/>
<path d="M0 0 C1.32 0 2.64 0 4 0 C4.66 2.64 5.32 5.28 6 8 C5.01 8 4.02 8 3 8 C3 6.68 3 5.36 3 4 C2.01 4 1.02 4 0 4 C0 2.68 0 1.36 0 0 Z " fill="#373332" transform="translate(259,346)"/>
<path d="M0 0 C-0.33 1.65 -0.66 3.3 -1 5 C-2.32 4.67 -3.64 4.34 -5 4 C-5.33 4.66 -5.66 5.32 -6 6 C-7.65 6 -9.3 6 -11 6 C-3.6 0 -3.6 0 0 0 Z " fill="#E0DBDA" transform="translate(320,327)"/>
<path d="M0 0 C1.32 0.33 2.64 0.66 4 1 C2.60667426 4.36720387 1.0210714 5.9859524 -2 8 C-2.33 7.01 -2.66 6.02 -3 5 C-1.5625 2.3125 -1.5625 2.3125 0 0 Z " fill="#494242" transform="translate(320,319)"/>
<path d="M0 0 C1.32 0.66 2.64 1.32 4 2 C4 3.32 4 4.64 4 6 C2.02 6 0.04 6 -2 6 C-1.34 4.02 -0.68 2.04 0 0 Z " fill="#F4F1F0" transform="translate(294,352)"/>
<path d="M0 0 C1.32 0.33 2.64 0.66 4 1 C4 3.97 4 6.94 4 10 C3.01 10.495 3.01 10.495 2 11 C0.89155081 7.67465243 1.15545644 5.37817425 2 2 C1.34 2 0.68 2 0 2 C0 1.34 0 0.68 0 0 Z " fill="#3A3836" transform="translate(298,348)"/>
<path d="M0 0 C3 1 3 1 6 3 C5.34 4.98 4.68 6.96 4 9 C2.00902154 6.01353231 1.05875074 3.40312738 0 0 Z " fill="#D9D5D4" transform="translate(243,348)"/>
<path d="M0 0 C0.33 0.99 0.66 1.98 1 3 C0.01 3.495 0.01 3.495 -1 4 C-2.13350534 6.01669827 -2.13350534 6.01669827 -3 8 C-3.66 7.67 -4.32 7.34 -5 7 C-4.625 4.0625 -4.625 4.0625 -4 1 C-2 0 -2 0 0 0 Z " fill="#E0DDDC" transform="translate(295,349)"/>
<path d="M0 0 C0.66 0 1.32 0 2 0 C3.9078584 3.1749094 4.1609041 5.10585211 3.625 8.75 C3.51414063 9.54921875 3.40328125 10.3484375 3.2890625 11.171875 C3.19367188 11.77515625 3.09828125 12.3784375 3 13 C2.67 13 2.34 13 2 13 C2 10.36 2 7.72 2 5 C0.68 4.34 -0.64 3.68 -2 3 C-1.34 2.34 -0.68 1.68 0 1 C0 0.67 0 0.34 0 0 Z " fill="#D1CDCC" transform="translate(237,344)"/>
<path d="M0 0 C2.97 0.495 2.97 0.495 6 1 C6.33 2.65 6.66 4.3 7 6 C4.03 5.01 1.06 4.02 -2 3 C-0.68 2.67 0.64 2.34 2 2 C1.34 1.34 0.68 0.68 0 0 Z " fill="#F8F4F3" transform="translate(266,364)"/>
<path d="M0 0 C0.99 0.99 1.98 1.98 3 3 C2.34 4.98 1.68 6.96 1 9 C-0.32 9 -1.64 9 -3 9 C-2.67 8.01 -2.34 7.02 -2 6 C-1.34 6 -0.68 6 0 6 C0 4.02 0 2.04 0 0 Z " fill="#E4E1E0" transform="translate(240,351)"/>
<path d="M0 0 C0.33 0.66 0.66 1.32 1 2 C1.86625 1.649375 2.7325 1.29875 3.625 0.9375 C7.24825242 -0.068959 9.3853322 0.13936481 13 1 C13 1.33 13 1.66 13 2 C11.4221875 2.2165625 11.4221875 2.2165625 9.8125 2.4375 C6.15573855 2.91317812 6.15573855 2.91317812 3.25 3.6875 C1 4 1 4 -2 2 C-1.34 2 -0.68 2 0 2 C0 1.34 0 0.68 0 0 Z " fill="#DCD7D7" transform="translate(285,344)"/>
<path d="M0 0 C0.66 0.99 1.32 1.98 2 3 C0.02 3.99 0.02 3.99 -2 5 C-1.67 5.99 -1.34 6.98 -1 8 C-4.75 9.125 -4.75 9.125 -7 8 C-4.69 5.36 -2.38 2.72 0 0 Z " fill="#D9D3D3" transform="translate(327,317)"/>
<path d="M0 0 C0.12375 0.61875 0.2475 1.2375 0.375 1.875 C0.87197356 4.19120832 0.87197356 4.19120832 3 6 C2.01 6.66 1.02 7.32 0 8 C-4 3.25 -4 3.25 -4 1 C-2 0 -2 0 0 0 Z " fill="#4A4243" transform="translate(167,373)"/>
<path d="M0 0 C1.32 0.33 2.64 0.66 4 1 C4 2.65 4 4.3 4 6 C2.68 6 1.36 6 0 6 C0 4.02 0 2.04 0 0 Z " fill="#E7E4E3" transform="translate(245,370)"/>
<path d="M0 0 C2 3 2 3 2 5 C0.02 5.33 -1.96 5.66 -4 6 C-4.33 4.68 -4.66 3.36 -5 2 C-4.01 2.33 -3.02 2.66 -2 3 C-2 2.34 -2 1.68 -2 1 C-1.34 0.67 -0.68 0.34 0 0 Z " fill="#F9F5ED" transform="translate(317,362)"/>
<path d="M0 0 C0.99 0 1.98 0 3 0 C2.67 2.31 2.34 4.62 2 7 C0.68 7.33 -0.64 7.66 -2 8 C-1.125 1.125 -1.125 1.125 0 0 Z " fill="#F8F5F3" transform="translate(321,361)"/>
<path d="M0 0 C2.475 0.495 2.475 0.495 5 1 C4.67 2.32 4.34 3.64 4 5 C2.68 5 1.36 5 0 5 C0 3.35 0 1.7 0 0 Z " fill="#E2E1DF" transform="translate(307,348)"/>
<path d="M0 0 C1.125 3.75 1.125 3.75 0 6 C-0.22278664 7.36972529 -0.4068105 8.74603588 -0.5625 10.125 C-0.7790625 12.043125 -0.7790625 12.043125 -1 14 C-1.33 14 -1.66 14 -2 14 C-3.32854177 8.0819503 -2.66464729 5.22270869 0 0 Z " fill="#574F50" transform="translate(167,188)"/>
<path d="M0 0 C2.31 0.66 4.62 1.32 7 2 C6.67 3.32 6.34 4.64 6 6 C1.125 3.375 1.125 3.375 0 0 Z " fill="#E4E0DF" transform="translate(169,383)"/>
<path d="M0 0 C1.32 0 2.64 0 4 0 C3.67 2.31 3.34 4.62 3 7 C2.34 7 1.68 7 1 7 C0.67 4.69 0.34 2.38 0 0 Z " fill="#F0EDEC" transform="translate(201,356)"/>
<path d="M0 0 C0.99 0 1.98 0 3 0 C2.67 1.98 2.34 3.96 2 6 C1.34 6 0.68 6 0 6 C0.33 6.99 0.66 7.98 1 9 C0.34 9 -0.32 9 -1 9 C-1.33 7.35 -1.66 5.7 -2 4 C-1.34 4 -0.68 4 0 4 C0 2.68 0 1.36 0 0 Z " fill="#F4F1F0" transform="translate(279,349)"/>
<path d="M0 0 C2.52588702 2.36292656 3.88820837 3.66462511 5 7 C4.01 7.495 4.01 7.495 3 8 C0.875 7.0625 0.875 7.0625 -1 6 C-0.67 4.02 -0.34 2.04 0 0 Z " fill="#E1DADA" transform="translate(237,313)"/>
<path d="M0 0 C0.66 0.33 1.32 0.66 2 1 C2.484375 2.77734375 2.484375 2.77734375 2.75 4.9375 C2.84796875 5.64777344 2.9459375 6.35804688 3.046875 7.08984375 C3 9 3 9 1 11 C0.34 9.68 -0.32 8.36 -1 7 C-0.34 7 0.32 7 1 7 C0.4740625 5.824375 0.4740625 5.824375 -0.0625 4.625 C-0.371875 3.75875 -0.68125 2.8925 -1 2 C-0.67 1.34 -0.34 0.68 0 0 Z " fill="#544D4E" transform="translate(265,191)"/>
<path d="M0 0 C1.98 0.99 1.98 0.99 4 2 C4 3.32 4 4.64 4 6 C2.68 6 1.36 6 0 6 C0 4.02 0 2.04 0 0 Z " fill="#E4E0DF" transform="translate(322,370)"/>
<path d="M0 0 C0.33 0.66 0.66 1.32 1 2 C-5.4 3.23076923 -5.4 3.23076923 -8.4375 2.0625 C-8.953125 1.711875 -9.46875 1.36125 -10 1 C-6.52674819 -0.1577506 -3.63932552 -0.06866652 0 0 Z " fill="#D0C7C8" transform="translate(220,196)"/>
<path d="M0 0 C1.60725635 3.21451269 1.05748185 6.43612536 1 10 C0.34 9.67 -0.32 9.34 -1 9 C-1 7.35 -1 5.7 -1 4 C-3.475 3.01 -3.475 3.01 -6 2 C-2.25 0 -2.25 0 0 0 Z " fill="#D6D2D0" transform="translate(319,367)"/>
<path d="M0 0 C0.33 0 0.66 0 1 0 C2.125 7.75 2.125 7.75 1 10 C-1.64 9.67 -4.28 9.34 -7 9 C-7 8.67 -7 8.34 -7 8 C-5.02 7.67 -3.04 7.34 -1 7 C-0.67 4.69 -0.34 2.38 0 0 Z " fill="#656160" transform="translate(236,350)"/>
<path d="M0 0 C1.65 1.32 3.3 2.64 5 4 C4.67 4.66 4.34 5.32 4 6 C3.34 5.67 2.68 5.34 2 5 C1.67 5.99 1.34 6.98 1 8 C-0.35439668 5.29120665 -0.06501451 2.99066732 0 0 Z " fill="#DAD8D5" transform="translate(213,352)"/>
<path d="M0 0 C1.32 0.66 2.64 1.32 4 2 C-1.445 3.485 -1.445 3.485 -7 5 C-7 4.34 -7 3.68 -7 3 C-3.75 1.375 -3.75 1.375 0 0 Z " fill="#544A4B" transform="translate(303,332)"/>
<path d="M0 0 C0.33 0 0.66 0 1 0 C1 1.98 1 3.96 1 6 C2.65 6 4.3 6 6 6 C5.67 6.66 5.34 7.32 5 8 C3.02 8 1.04 8 -1 8 C-0.67 5.36 -0.34 2.72 0 0 Z " fill="#5E5A59" transform="translate(321,370)"/>
<path d="M0 0 C2.64 0 5.28 0 8 0 C7.67 0.99 7.34 1.98 7 3 C4.66666667 3 2.33333333 3 0 3 C0 2.01 0 1.02 0 0 Z " fill="#D1CDCC" transform="translate(293,370)"/>
<path d="M0 0 C2.97 0.495 2.97 0.495 6 1 C6 1.66 6 2.32 6 3 C4.02 3.66 2.04 4.32 0 5 C-0.33 4.01 -0.66 3.02 -1 2 C-0.67 1.34 -0.34 0.68 0 0 Z " fill="#F2EEED" transform="translate(287,377)"/>
<path d="M0 0 C1.32 0 2.64 0 4 0 C3.67 1.32 3.34 2.64 3 4 C1.68 4.33 0.36 4.66 -1 5 C-0.67 3.35 -0.34 1.7 0 0 Z " fill="#E4E0DF" transform="translate(285,374)"/>
<path d="M0 0 C1.98 0.495 1.98 0.495 4 1 C4 3.64 4 6.28 4 9 C3.34 8.67 2.68 8.34 2 8 C2 7.01 2 6.02 2 5 C1.01 4.67 0.02 4.34 -1 4 C-0.01 3.67 0.98 3.34 2 3 C1.34 2.01 0.68 1.02 0 0 Z " fill="#F9F6F5" transform="translate(296,371)"/>
<path d="M0 0 C-0.33 0.99 -0.66 1.98 -1 3 C-1.66 3 -2.32 3 -3 3 C-3.33 3.66 -3.66 4.32 -4 5 C-4.99 4.34 -5.98 3.68 -7 3 C-5.40442685 -0.19114631 -3.35905282 0 0 0 Z " fill="#EAE6E4" transform="translate(305,366)"/>
<path d="M0 0 C0.33 0 0.66 0 1 0 C1 1.98 1 3.96 1 6 C1.66 6.33 2.32 6.66 3 7 C2.34 7 1.68 7 1 7 C1 8.98 1 10.96 1 13 C0.67 13 0.34 13 0 13 C-0.19551338 11.39679026 -0.38111983 9.79237014 -0.5625 8.1875 C-0.71912109 6.84751953 -0.71912109 6.84751953 -0.87890625 5.48046875 C-1 3 -1 3 0 0 Z " fill="#494745" transform="translate(306,348)"/>
<path d="M0 0 C0.99 0.99 1.98 1.98 3 3 C2.34 4.32 1.68 5.64 1 7 C-0.32 6.67 -1.64 6.34 -3 6 C-2.67 5.34 -2.34 4.68 -2 4 C-1.34 4.33 -0.68 4.66 0 5 C-0.33 4.01 -0.66 3.02 -1 2 C-0.67 1.34 -0.34 0.68 0 0 Z " fill="#EBE5E5" transform="translate(251,328)"/>
<path d="M0 0 C0.33 0 0.66 0 1 0 C1.22151549 1.79008467 1.42682213 3.58218162 1.625 5.375 C1.74101562 6.37273437 1.85703125 7.37046875 1.9765625 8.3984375 C1.98429687 9.25695312 1.99203125 10.11546875 2 11 C1.34 11.66 0.68 12.32 0 13 C-0.96661363 9.87819599 -0.98988909 7.47916205 -0.5625 4.25 C-0.46066406 3.45078125 -0.35882813 2.6515625 -0.25390625 1.828125 C-0.17011719 1.22484375 -0.08632813 0.6215625 0 0 Z " fill="#D8D1D2" transform="translate(337,291)"/>
<path d="M0 0 C0.33 1.65 0.66 3.3 1 5 C0.34 5 -0.32 5 -1 5 C-1.33 5.99 -1.66 6.98 -2 8 C-2.66 5.69 -3.32 3.38 -4 1 C-2 0 -2 0 0 0 Z " fill="#50494A" transform="translate(231,200)"/>
<path d="M0 0 C0.33 0 0.66 0 1 0 C1.33 3.63 1.66 7.26 2 11 C1.01 11 0.02 11 -1 11 C-0.67 7.37 -0.34 3.74 0 0 Z " fill="#C8C4C3" transform="translate(217,369)"/>
<path d="M0 0 C1.875 0.25 1.875 0.25 4 1 C5.25 3.0625 5.25 3.0625 6 5 C5.01 5.33 4.02 5.66 3 6 C2.01 4.02 1.02 2.04 0 0 Z " fill="#E6E1E1" transform="translate(197,351)"/>
<path d="M0 0 C3.375 -0.125 3.375 -0.125 7 0 C7.66 0.66 8.32 1.32 9 2 C5.52176885 3.15941038 3.54104422 2.70820884 0 2 C0 1.34 0 0.68 0 0 Z " fill="#2F2B28" transform="translate(305,346)"/>
<path d="M0 0 C1.9375 0.75 1.9375 0.75 4 2 C4.875 4 4.875 4 5 6 C4.34 6.66 3.68 7.32 3 8 C3 7.01 3 6.02 3 5 C2.34 5 1.68 5 1 5 C1 4.34 1 3.68 1 3 C0.34 2.67 -0.32 2.34 -1 2 C-0.67 1.34 -0.34 0.68 0 0 Z " fill="#493D3F" transform="translate(170,183)"/>
</svg>
